<?xml version="1.0" encoding="iso-8859-1"?>
<!-- Generator: Adobe Illustrator 19.0.0, SVG Export Plug-In . SVG Version: 6.00 Build 0)  -->
<svg version="1.1" id="Layer_1" xmlns="http://www.w3.org/2000/svg" xmlns:xlink="http://www.w3.org/1999/xlink" x="0px" y="0px"
	 viewBox="0 0 496 496" style="enable-background:new 0 0 496 496;" xml:space="preserve">
<rect x="336" y="96" style="fill:#CC2121;" width="144" height="152"/>
<polyline style="fill:#AD0E0E;" points="336,96 480,96 480,248 "/>
<path style="fill:#0AA06E;" d="M496,252c0,6.4-5.6,12-12,12H332c-6.4,0-12-5.6-12-12l0,0c0-6.4,5.6-12,12-12h152
	C490.4,240,496,245.6,496,252L496,252z"/>
<rect y="168" style="fill:#D1D1D3;" width="16" height="280"/>
<path style="fill:#CC2121;" d="M493.6,448c-4-128-109.6-231.2-238.4-231.2C125.6,216.8,20,320,16,448H493.6z"/>
<path style="fill:#D1D1D3;" d="M440,448c-3.2-96-84.8-179.2-185.6-179.2c-100,0-181.6,83.2-184.8,179.2H440z"/>
<path style="fill:#AD0E0E;" d="M256,448h237.6C489.6,320,384,217.6,256,216.8V448z"/>
<path style="fill:#F4EFD9;" d="M440,448.8c-3.2-99.2-84.8-179.2-185.6-179.2c-100,0-181.6,80-185.6,179.2H440z"/>
<path style="fill:#E2DBBC;" d="M256,448h184c-3.2-96-88-178.4-184-179.2V448z"/>
<path style="fill:#32BA7C;" d="M331.2,448.8c-1.6-40.8-35.2-73.6-76-73.6c-41.6,0-75.2,32.8-76,73.6H331.2z"/>
<path style="fill:#0AA06E;" d="M256,448.8h75.2c-1.6-40-35.2-73.6-75.2-73.6V448.8z"/>
<path style="fill:#ED8F20;" d="M0,171.2c136.8,0,247.2-7.2,247.2-36c0-23.2-72-42.4-172-49.6C69.6,60.8,38.4,47.2,0,47.2"/>
<path style="fill:#D87100;" d="M0,171.2c136.8,0,247.2-7.2,247.2-36c0-23.2-72-42.4-172-49.6"/>
<path style="fill:#32BA7C;" d="M496,92c0,6.4-5.6,12-12,12H332c-6.4,0-12-5.6-12-12l0,0c0-6.4,5.6-12,12-12h152
	C490.4,80,496,85.6,496,92L496,92z"/>
<g>
	<path style="fill:#0AA06E;" d="M336,80h147.2c7.2,0,12.8,4.8,12.8,12v1.6c0,7.2-4.8,10.4-12,10.4"/>
	<rect x="368" y="104" style="fill:#0AA06E;" width="16" height="136"/>
	<rect x="432" y="104" style="fill:#0AA06E;" width="16" height="136"/>
</g>
<g>
</g>
<g>
</g>
<g>
</g>
<g>
</g>
<g>
</g>
<g>
</g>
<g>
</g>
<g>
</g>
<g>
</g>
<g>
</g>
<g>
</g>
<g>
</g>
<g>
</g>
<g>
</g>
<g>
</g>
</svg>
