
<svg xmlns="http://www.w3.org/2000/svg" viewBox="0 0 1440 320">
  <path fill="#6b5fad" fill-opacity="1" d="M0,192L21.8,160C43.6,128,87,64,131,74.7C174.5,85,218,171,262,186.7C305.5,203,349,149,393,144C436.4,139,480,181,524,218.7C567.3,256,611,288,655,266.7C698.2,245,742,171,785,128C829.1,85,873,75,916,112C960,149,1004,235,1047,266.7C1090.9,299,1135,277,1178,229.3C1221.8,181,1265,107,1309,64C1352.7,21,1396,11,1418,5.3L1440,0L1440,320L1418.2,320C1396.4,320,1353,320,1309,320C1265.5,320,1222,320,1178,320C1134.5,320,1091,320,1047,320C1003.6,320,960,320,916,320C872.7,320,829,320,785,320C741.8,320,698,320,655,320C610.9,320,567,320,524,320C480,320,436,320,393,320C349.1,320,305,320,262,320C218.2,320,175,320,131,320C87.3,320,44,320,22,320L0,320Z"></path>
</svg>
